<svg width="346" height="108" viewBox="0 0 346 108" fill="none" xmlns="http://www.w3.org/2000/svg">
<path d="M345.998 107.373H326.662L318.972 82.9834L283.815 82.9834L276.564 107.373H257.668L291.945 0L310.769 0L345.998 107.373ZM313.259 64.8926L301.174 25.0488L289.235 64.8926L313.259 64.8926Z" fill="black"/>
<path d="M183.84 107.373L183.84 87.8174L230.129 18.1641L189.04 18.1641V0L253.493 0V16.8457L205.3 89.2822L255.397 89.2822V107.373L183.84 107.373Z" fill="black"/>
<path d="M108.693 107.373V87.8174L154.982 18.1641L113.894 18.1641V0L178.347 0V16.8457L130.153 89.2822L180.251 89.2822V107.373L108.693 107.373Z" fill="black"/>
<path d="M81.5195 107.373L81.5195 0L99.2441 0L99.2441 107.373H81.5195Z" fill="black"/>
<path d="M0.00195313 107.373L0.00195312 0L28.5664 0C39.2109 0 46.1689 0.512695 49.4404 1.53809C54.665 3.19824 58.9619 6.73828 62.3311 12.1582C65.749 17.5781 67.458 24.5605 67.458 33.1055C67.458 40.8691 65.9932 47.3877 63.0635 52.6611C60.1338 57.8857 56.4717 61.5723 52.0771 63.7207C47.6826 65.8203 40.1143 66.8701 29.3721 66.8701H17.7266L17.7266 107.373H0.00195313ZM17.7266 18.1641L17.7266 48.6328L27.541 48.6328C34.1328 48.6328 38.6006 48.1689 40.9443 47.2412C43.3369 46.3135 45.29 44.6533 46.8037 42.2607C48.3174 39.8193 49.0742 36.8408 49.0742 33.3252C49.0742 29.7607 48.293 26.7578 46.7305 24.3164C45.168 21.875 43.2393 20.2393 40.9443 19.4092C38.6494 18.5791 33.791 18.1641 26.3691 18.1641H17.7266Z" fill="black"/>
</svg>
